<svg width="111" height="110" viewBox="0 0 111 110" fill="none" xmlns="http://www.w3.org/2000/svg">
<g filter="url(#filter0_bd_1802_12158)">
<rect x="30.8943" y="26" width="50" height="50" rx="25" fill="white" fill-opacity="0.5" shape-rendering="crispEdges"/>
<rect x="31.3943" y="26.5" width="49" height="49" rx="24.5" stroke="#D9D9D9" shape-rendering="crispEdges"/>
</g>
<path d="M68.2465 37.1111L66.0151 62.1082L55.9849 64.8889L45.9824 62.1121L43.7534 37.1111H68.2465Z" fill="#264DE4"/>
<path d="M64.1048 60.5165L66.0117 39.1553H56V62.7634L64.1048 60.5165Z" fill="#2965F1"/>
<path d="M48.8633 48.4279L49.1381 51.4941H55.9998V48.4279H48.8633Z" fill="#EBEBEB"/>
<path d="M56 42.2216H55.9894H48.3113L48.59 45.2879H56V42.2216Z" fill="#EBEBEB"/>
<path d="M55.9999 59.5814V56.3912L55.9864 56.3948L52.5715 55.4727L52.3532 53.0272H50.6938H49.2751L49.7047 57.8417L55.9858 59.5853L55.9999 59.5814Z" fill="#EBEBEB"/>
<path d="M59.765 51.494L59.4091 55.4708L55.9893 56.3938V59.5839L62.2753 57.8417L62.3214 57.3237L63.0419 49.2512L63.1168 48.4278L63.6703 42.2216H55.9893V45.2879H60.3099L60.0309 48.4278H55.9893V51.494H59.765Z" fill="white"/>
<defs>
<filter id="filter0_bd_1802_12158" x="-19.1057" y="-24" width="150" height="150" filterUnits="userSpaceOnUse" color-interpolation-filters="sRGB">
<feFlood flood-opacity="0" result="BackgroundImageFix"/>
<feGaussianBlur in="BackgroundImageFix" stdDeviation="25"/>
<feComposite in2="SourceAlpha" operator="in" result="effect1_backgroundBlur_1802_12158"/>
<feColorMatrix in="SourceAlpha" type="matrix" values="0 0 0 0 0 0 0 0 0 0 0 0 0 0 0 0 0 0 127 0" result="hardAlpha"/>
<feOffset dy="4"/>
<feGaussianBlur stdDeviation="15"/>
<feComposite in2="hardAlpha" operator="out"/>
<feColorMatrix type="matrix" values="0 0 0 0 0 0 0 0 0 0 0 0 0 0 0 0 0 0 0.1 0"/>
<feBlend mode="normal" in2="effect1_backgroundBlur_1802_12158" result="effect2_dropShadow_1802_12158"/>
<feBlend mode="normal" in="SourceGraphic" in2="effect2_dropShadow_1802_12158" result="shape"/>
</filter>
</defs>
</svg>
