<svg width="48" height="48" viewBox="0 0 48 48" fill="none" xmlns="http://www.w3.org/2000/svg">
<path d="M0 24C0 10.7452 10.7452 0 24 0C37.2548 0 48 10.7452 48 24C48 37.2548 37.2548 48 24 48C10.7452 48 0 37.2548 0 24Z" fill="#1769FF"/>
<path fill-rule="evenodd" clip-rule="evenodd" d="M23.6704 20.0449C23.6704 19.1198 23.428 18.3269 22.9449 17.6631C22.1396 16.5821 20.7744 16.0282 18.8448 16H11.2V31.6065H18.3285C19.1322 31.6065 19.8758 31.5382 20.5637 31.3971C21.2515 31.2546 21.8461 30.9947 22.3503 30.6131C22.7989 30.2805 23.1721 29.8706 23.4702 29.3851C23.9413 28.6515 24.1761 27.8214 24.1761 26.8963C24.1761 25.9994 23.9699 25.2362 23.5605 24.6096C23.1466 23.9814 22.5385 23.5226 21.7317 23.2316C22.263 22.9643 22.6649 22.6673 22.9388 22.3436C23.428 21.7645 23.6704 20.9968 23.6704 20.0449ZM34.3375 18.6699H27.5582V16.7276H34.3375V18.6699ZM28.3484 24.6942C28.4598 23.9428 28.7323 23.3474 29.1643 22.9078C29.5962 22.4683 30.2073 22.2485 30.99 22.2485C31.7125 22.2485 32.3161 22.4549 32.8068 22.8692C33.2915 23.2865 33.5654 23.8923 33.6211 24.6942H28.3484ZM33.74 20.3003C34.5573 20.6597 35.2301 21.2299 35.7599 22.008C36.2431 22.694 36.5532 23.4899 36.6947 24.3942C36.7774 24.9229 36.8106 25.6891 36.797 26.6855H28.2732C28.3244 27.8422 28.7278 28.6545 29.4984 29.1193C29.965 29.4088 30.5264 29.5543 31.1857 29.5543C31.8796 29.5543 32.447 29.3776 32.882 29.0257C33.1214 28.8342 33.3321 28.5698 33.5127 28.2313H36.636C36.5532 28.9143 36.1739 29.6108 35.5026 30.3176C34.455 31.4387 32.9874 32 31.1014 32C29.5436 32 28.1693 31.5278 26.9817 30.5804C25.7881 29.6345 25.1951 28.0932 25.1951 25.9608C25.1951 23.9606 25.7324 22.4267 26.8056 21.3591C27.8818 20.2944 29.2741 19.7583 30.9885 19.7583C32.0075 19.7583 32.9242 19.9395 33.74 20.3003ZM14.3533 28.898V24.7358H18.2487C18.926 24.7417 19.4543 24.8308 19.8306 25.0001C20.5035 25.3045 20.8376 25.8613 20.8376 26.6751C20.8376 27.6343 20.4914 28.2818 19.7975 28.6233C19.4167 28.8059 18.8809 28.898 18.1945 28.898H14.3533ZM14.3533 18.71V22.1535H18.2005C18.8854 22.1535 19.4438 22.0243 19.8743 21.7659C20.3018 21.5076 20.517 21.0502 20.517 20.3968C20.517 19.6677 20.234 19.1881 19.6681 18.9535C19.1774 18.7916 18.5543 18.71 17.7971 18.71H14.3533Z" fill="white"/>
</svg>
