<svg width="24" height="24" viewBox="0 0 24 24" fill="none" xmlns="http://www.w3.org/2000/svg">
<g clip-path="url(#clip0_1804_12615)">
<path fill-rule="evenodd" clip-rule="evenodd" d="M11.9957 0.599976C9.16469 0.601444 6.4265 1.60414 4.27075 3.42876C2.11501 5.25339 0.682284 7.78096 0.228769 10.5595C-0.224746 13.3381 0.330513 16.1865 1.79527 18.5953C3.26003 21.0042 5.53877 22.8164 8.22402 23.7081C8.81643 23.818 9.03958 23.4508 9.03958 23.1387C9.03958 22.8265 9.02773 21.9213 9.02378 20.9317C5.70628 21.6484 5.00526 19.5318 5.00526 19.5318C4.46419 18.1573 3.68221 17.7961 3.68221 17.7961C2.60007 17.0617 3.76318 17.0755 3.76318 17.0755C4.96182 17.1599 5.59175 18.2987 5.59175 18.2987C6.65414 20.111 8.382 19.5867 9.0613 19.2804C9.16793 18.5127 9.47796 17.9904 9.81959 17.694C7.16954 17.3955 4.3852 16.3784 4.3852 11.835C4.36878 10.6566 4.80853 9.51712 5.61347 8.65217C5.49104 8.35372 5.08227 7.14815 5.72997 5.51062C5.72997 5.51062 6.73116 5.19254 9.00996 6.72601C10.9646 6.19452 13.0268 6.19452 14.9815 6.72601C17.2583 5.19254 18.2575 5.51062 18.2575 5.51062C18.9072 7.14422 18.4984 8.3498 18.376 8.65217C19.1835 9.51726 19.6241 10.6588 19.6062 11.8389C19.6062 16.3922 16.816 17.3955 14.162 17.6881C14.5885 18.0572 14.9696 18.7778 14.9696 19.8852C14.9696 21.4717 14.9558 22.7479 14.9558 23.1387C14.9558 23.4548 15.171 23.8239 15.7753 23.7081C18.4609 22.8163 20.7398 21.0037 22.2046 18.5945C23.6693 16.1852 24.2243 13.3364 23.7702 10.5576C23.3162 7.77877 21.8828 5.25117 19.7263 3.42686C17.5698 1.60255 14.831 0.600513 11.9997 0.599976H11.9957Z" fill="#191717"/>
<path d="M4.58655 17.6252C4.56088 17.6842 4.4661 17.7018 4.38908 17.6606C4.31207 17.6194 4.25481 17.5428 4.28245 17.4819C4.3101 17.421 4.40291 17.4053 4.47992 17.4466C4.55694 17.4878 4.61617 17.5663 4.58655 17.6252Z" fill="#191717"/>
<path d="M5.07027 18.1613C5.02938 18.1818 4.98259 18.1875 4.93792 18.1774C4.89326 18.1674 4.85349 18.1423 4.82541 18.1063C4.7484 18.0238 4.73259 17.9099 4.79183 17.8589C4.85107 17.8078 4.95772 17.8314 5.03473 17.9139C5.11174 17.9963 5.12951 18.1102 5.07027 18.1613Z" fill="#191717"/>
<path d="M5.53991 18.8425C5.46685 18.8936 5.34244 18.8425 5.27332 18.7404C5.25421 18.7221 5.23901 18.7002 5.22863 18.6759C5.21825 18.6516 5.21289 18.6255 5.21289 18.5991C5.21289 18.5727 5.21825 18.5465 5.22863 18.5223C5.23901 18.498 5.25421 18.476 5.27332 18.4577C5.34639 18.4086 5.4708 18.4577 5.53991 18.5578C5.60903 18.658 5.611 18.7915 5.53991 18.8425Z" fill="#191717"/>
<path d="M6.17821 19.5023C6.11304 19.575 5.98074 19.5553 5.87213 19.4572C5.76352 19.359 5.73785 19.2255 5.80301 19.1548C5.86818 19.0841 6.00048 19.1037 6.11304 19.1999C6.2256 19.2961 6.24732 19.4316 6.17821 19.5023Z" fill="#191717"/>
<path d="M7.07234 19.8871C7.04271 19.9794 6.90843 20.0206 6.77415 19.9813C6.63987 19.9421 6.55101 19.8321 6.57668 19.7379C6.60235 19.6436 6.73861 19.6004 6.87487 19.6436C7.01112 19.6868 7.09801 19.7909 7.07234 19.8871Z" fill="#191717"/>
<path d="M8.04806 19.954C8.04806 20.0502 7.93749 20.1326 7.79531 20.1346C7.65313 20.1366 7.53662 20.058 7.53662 19.9618C7.53662 19.8656 7.6472 19.7831 7.78938 19.7812C7.93156 19.7792 8.04806 19.8558 8.04806 19.954Z" fill="#191717"/>
<path d="M8.95628 19.8027C8.97405 19.8989 8.87532 19.999 8.73314 20.0226C8.59096 20.0461 8.46655 19.9892 8.44878 19.8949C8.43101 19.8007 8.53369 19.6986 8.67192 19.6731C8.81015 19.6476 8.93851 19.7065 8.95628 19.8027Z" fill="#191717"/>
</g>
<defs>
<clipPath id="clip0_1804_12615">
<rect width="24" height="24" rx="6" fill="white"/>
</clipPath>
</defs>
</svg>
