<svg width="181" height="60" viewBox="0 0 181 60" fill="none" xmlns="http://www.w3.org/2000/svg">
<path d="M180.031 51.1417C180.031 55.5543 176.48 59.1345 172.098 59.1345H8.45101C4.06921 59.1345 0.515381 55.5543 0.515381 51.1417V7.99008C0.515381 3.57882 4.06921 0 8.45101 0H172.098C176.48 0 180.031 3.57882 180.031 7.99008V51.1417Z" fill="#231F20"/>
<path d="M47.3281 39.0868C46.3778 41.2092 45.9235 42.1553 44.699 44.03C42.992 46.6478 40.586 49.9072 37.6048 49.9343C34.9555 49.9586 34.2741 48.1977 30.6786 48.218C27.0844 48.2383 26.3331 49.9654 23.6825 49.941C20.7012 49.914 18.4216 46.97 16.7146 44.3535C11.9403 37.0348 11.4403 28.4451 14.3853 23.8795C16.478 20.6337 19.7778 18.7346 22.8827 18.7346C26.0427 18.7346 28.0293 20.4794 30.6409 20.4794C33.1759 20.4794 34.7203 18.7319 38.3736 18.7319C41.1357 18.7319 44.0619 20.2452 46.1466 22.8644C39.3158 26.634 40.4247 36.4609 47.3281 39.0868Z" fill="white"/>
<path d="M35.6034 15.8082C36.9287 14.0933 37.9381 11.669 37.5725 9.19336C35.4045 9.3436 32.8681 10.7324 31.3869 12.5434C30.0415 14.188 28.9326 16.6271 29.3654 18.9972C31.731 19.0703 34.1813 17.6464 35.6034 15.8082Z" fill="white"/>
<path d="M63.495 27.1023C63.7262 28.0064 63.9749 28.9458 64.2961 29.961L66.1389 35.336H60.8928L62.7101 29.9258C62.987 29.05 63.2504 28.1012 63.495 27.1023ZM61.8727 23.7684L55.0339 44.0407H58.1656L60.2073 37.8157H66.8284L68.9279 44.0407H72.1471L65.2787 23.7684H61.8727Z" fill="white"/>
<path d="M80.2373 31.5636C82.9524 31.5636 84.1674 34.0961 84.1674 36.6056C84.1674 39.842 82.6177 41.8534 80.1217 41.8534C78.4187 41.8534 76.9442 40.6866 76.5342 39.0068C76.463 38.7469 76.4254 38.4031 76.4254 38.0147V35.5485C76.4254 35.3251 76.4751 35.0544 76.5221 34.7905C76.5383 34.7079 76.5544 34.624 76.5665 34.5414C77.0208 32.7872 78.5289 31.5636 80.2373 31.5636ZM80.9967 29.0229C78.9214 29.0229 77.2601 29.8297 76.1539 31.3633L76.0329 29.3465H73.2466L73.264 29.6036C73.346 30.8597 73.3796 32.2431 73.3796 34.2274V49.8543H76.4254V42.5613C77.3703 43.6996 78.8797 44.3629 80.5894 44.3629C82.369 44.3629 84.0088 43.6617 85.2038 42.3867C86.5385 40.9668 87.2428 38.927 87.2428 36.4879C87.2428 34.333 86.6312 32.4705 85.4726 31.1007C84.3382 29.7606 82.7494 29.0229 80.9967 29.0229Z" fill="white"/>
<path d="M95.9217 31.5636C98.6354 31.5636 99.8519 34.0961 99.8519 36.6056C99.8519 39.842 98.2994 41.8534 95.8061 41.8534C94.1031 41.8534 92.6273 40.6866 92.2173 39.0068C92.1474 38.7469 92.1098 38.4031 92.1098 38.0147V35.5485C92.1098 35.3238 92.1595 35.0517 92.2079 34.7878C92.2227 34.7052 92.2375 34.624 92.2509 34.5414C92.7039 32.7872 94.212 31.5636 95.9217 31.5636ZM96.6798 29.0229C94.6058 29.0229 92.9445 29.8297 91.8383 31.3633L91.716 29.3465H88.931L88.9471 29.6036C89.0291 30.8611 89.064 32.2431 89.064 34.2274V49.8543H92.1098V42.5613C93.0547 43.6996 94.5628 44.3629 96.2725 44.3629C98.0521 44.3629 99.6933 43.6617 100.89 42.3867C102.222 40.9668 102.926 38.927 102.926 36.4879C102.926 34.333 102.314 32.4705 101.156 31.1007C100.023 29.7606 98.4325 29.0229 96.6798 29.0229Z" fill="white"/>
<path d="M116.329 32.3583C113.487 31.2497 112.575 30.378 112.575 28.7673C112.575 27.411 113.645 26.0425 116.038 26.0425C118.011 26.0425 119.273 26.7342 119.613 26.9467L119.871 27.1078L120.73 24.5482L120.561 24.448C120.05 24.1462 118.595 23.4464 116.125 23.4464C112.241 23.4464 109.528 25.7542 109.528 29.0596C109.528 31.7248 111.227 33.5887 114.874 34.9246C117.458 35.8965 118.421 36.8927 118.421 38.6023C118.421 40.5351 116.937 41.7358 114.55 41.7358C112.995 41.7358 111.395 41.2796 110.16 40.4824L109.895 40.3118L109.078 42.931L109.228 43.0311C110.378 43.804 112.542 44.363 114.375 44.363C119.61 44.363 121.467 41.1497 121.467 38.3965C121.467 35.5594 119.979 33.8079 116.329 32.3583Z" fill="white"/>
<path d="M126.949 25.8544L123.961 26.7992V29.3466H121.774V31.7979H123.961V39.3061C123.961 41.1226 124.307 42.3936 125.016 43.1989C125.696 43.9502 126.743 44.363 127.963 44.363C129.114 44.363 129.932 44.1342 130.317 43.9975L130.488 43.9366L130.342 41.4813L130.05 41.5706C129.664 41.6897 129.269 41.7357 128.633 41.7357C127.453 41.7357 126.949 40.9831 126.949 39.2181V31.7979H130.623V29.3466H126.949V25.8544Z" fill="white"/>
<path d="M138.082 31.4458C140.823 31.4458 142.07 34.1354 142.07 36.6354C142.07 39.7093 140.367 41.9414 138.025 41.9414H137.995C135.686 41.9414 134.008 39.7472 134.008 36.7234C134.008 34.0961 135.269 31.4458 138.082 31.4458ZM138.171 29.0229C133.909 29.0229 130.933 32.2268 130.933 36.81C130.933 41.2578 133.814 44.3629 137.937 44.3629H137.965C141.452 44.3629 145.204 41.917 145.204 36.5461C145.204 34.3628 144.533 32.4881 143.263 31.121C141.984 29.7498 140.224 29.0229 138.171 29.0229Z" fill="white"/>
<path d="M154.532 29.1664L154.349 29.1191C154.081 29.0514 153.862 29.0229 153.592 29.0229C151.998 29.0229 150.569 29.9677 149.773 31.4932L149.683 29.3465H146.951L146.968 29.6036C147.049 30.8178 147.083 32.1822 147.083 34.0203L147.054 44.0407H150.1V36.2239C150.1 35.7975 150.13 35.3955 150.185 35.0341C150.528 33.1567 151.786 31.9439 153.389 31.9439C153.701 31.9439 153.946 31.9697 154.206 31.9954L154.532 32.0292V29.1664Z" fill="white"/>
<path d="M161.177 31.3282C162.104 31.3282 162.857 31.6178 163.412 32.1863C164.289 33.0851 164.442 34.4075 164.462 35.0423H157.516C157.798 33.2705 158.899 31.3282 161.177 31.3282ZM161.38 28.9946C157.325 28.9946 154.493 32.2567 154.493 36.9279C154.493 41.4271 157.31 44.3346 161.672 44.3346C163.965 44.3346 165.56 43.827 166.493 43.4033L166.677 43.3194L166.091 41.0346L165.837 41.1374C165.008 41.4772 163.904 41.8237 162.021 41.8237C160.698 41.8237 157.646 41.3851 157.459 37.3772L167.29 37.407L167.33 37.2108C167.392 36.8994 167.422 36.4798 167.422 35.9303C167.422 32.7318 165.84 28.9946 161.38 28.9946Z" fill="white"/>
<path d="M56.4156 18.4193C56.761 18.4762 57.2637 18.4762 57.7987 18.4762C60.7194 18.4897 62.3055 16.9954 62.3055 14.4046C62.3216 12.1131 60.9076 10.7026 58.0178 10.7026C57.3121 10.7026 56.7772 10.7609 56.4156 10.8312V18.4193ZM55.0339 9.92029C55.882 9.80659 56.8713 9.72131 57.9546 9.72131C59.9184 9.72131 61.3162 10.1206 62.2437 10.903C63.202 11.6853 63.7518 12.8101 63.7518 14.3627C63.7518 15.9274 63.202 17.2092 62.2275 18.0917C61.2221 18.9878 59.5891 19.4724 57.5312 19.4724C56.542 19.4724 55.7409 19.444 55.0339 19.3587V9.92029Z" fill="white"/>
<path d="M68.6968 18.6034C70.0167 18.6034 71.0059 17.4786 71.0059 15.9139C71.0059 14.7457 70.3621 13.2798 68.729 13.2798C67.1107 13.2798 66.4037 14.6469 66.4037 15.9558C66.4037 17.465 67.3459 18.6034 68.682 18.6034H68.6968ZM68.6497 19.5428C66.608 19.5428 65.0058 18.177 65.0058 15.9991C65.0058 13.6927 66.6873 12.3405 68.7761 12.3405C70.9589 12.3405 72.4347 13.7779 72.4347 15.8705C72.4347 18.4328 70.4723 19.5428 68.6658 19.5428H68.6497Z" fill="white"/>
<path d="M74.6216 12.496L75.6431 15.9855C75.8474 16.7529 76.0517 17.4784 76.1929 18.1918H76.2399C76.412 17.4933 76.6633 16.7529 76.9147 15.999L78.1566 12.496H79.3193L80.4967 15.9421C80.779 16.7529 80.9994 17.4933 81.1714 18.1918H81.2185C81.3448 17.4933 81.5491 16.7678 81.8005 15.9557L82.8838 12.496H84.2508L81.8005 19.387H80.5438L79.3811 16.0992C79.115 15.3154 78.8945 14.6319 78.705 13.8211H78.6741C78.4859 14.6468 78.2507 15.3723 77.9832 16.1127L76.7587 19.387H75.502L73.2076 12.496H74.6216Z" fill="white"/>
<path d="M85.6339 14.3627C85.6339 13.6358 85.6178 13.0673 85.5707 12.4961H86.7965L86.8745 13.6223H86.9054C87.2831 12.9807 88.1622 12.3405 89.4189 12.3405C90.4713 12.3405 92.1044 12.9103 92.1044 15.2736V19.3871H90.7227V15.4144C90.7227 14.3045 90.267 13.3665 88.9632 13.3665C88.0681 13.3665 87.3611 13.9498 87.1097 14.6469C87.0479 14.8026 87.0156 15.0313 87.0156 15.2303V19.3871H85.6339V14.3627Z" fill="white"/>
<path d="M94.3504 9.27991H95.7335V19.387H94.3504V9.27991Z" fill="white"/>
<path d="M101.168 18.6034C102.488 18.6034 103.477 17.4786 103.477 15.9139C103.477 14.7457 102.833 13.2798 101.2 13.2798C99.5817 13.2798 98.8747 14.6469 98.8747 15.9558C98.8747 17.465 99.8169 18.6034 101.153 18.6034H101.168ZM101.121 19.5428C99.079 19.5428 97.4769 18.177 97.4769 15.9991C97.4769 13.6927 99.157 12.3405 101.247 12.3405C103.43 12.3405 104.906 13.7779 104.906 15.8705C104.906 18.4328 102.943 19.5428 101.137 19.5428H101.121Z" fill="white"/>
<path d="M110.656 15.8705C109.148 15.8421 107.437 16.0844 107.437 17.4231C107.437 18.2488 108.033 18.6183 108.724 18.6183C109.73 18.6183 110.374 18.0484 110.593 17.465C110.641 17.3378 110.656 17.1943 110.656 17.0671V15.8705ZM112.007 17.7358C112.007 18.334 112.038 18.9161 112.117 19.3871H110.875L110.75 18.5181H110.703C110.294 19.0595 109.462 19.5428 108.379 19.5428C106.84 19.5428 106.054 18.5614 106.054 17.5639C106.054 15.899 107.687 14.988 110.624 15.0029V14.8594C110.624 14.2909 110.452 13.2514 108.896 13.2663C108.173 13.2663 107.437 13.4504 106.902 13.7779L106.587 12.9387C107.216 12.5827 108.142 12.3405 109.101 12.3405C111.441 12.3405 112.007 13.7779 112.007 15.1599V17.7358Z" fill="white"/>
<path d="M119.405 15.3019C119.405 15.13 119.39 14.931 119.342 14.7605C119.139 13.9781 118.385 13.323 117.348 13.323C115.918 13.323 115.07 14.4613 115.07 15.9706C115.07 17.3796 115.84 18.5315 117.316 18.5315C118.243 18.5315 119.092 17.963 119.342 17.0385C119.39 16.8666 119.405 16.6961 119.405 16.4971V15.3019ZM120.786 9.27991V17.607C120.786 18.2188 120.804 18.9159 120.85 19.387H119.609L119.547 18.1918H119.515C119.092 18.9592 118.18 19.5426 116.94 19.5426C115.101 19.5426 113.672 18.1349 113.672 16.041C113.656 13.7345 115.243 12.3403 117.081 12.3403C118.26 12.3403 119.044 12.8384 119.374 13.3799H119.405V9.27991H120.786Z" fill="white"/>
<path d="M129.553 18.6034C130.871 18.6034 131.861 17.4786 131.861 15.9139C131.861 14.7457 131.218 13.2798 129.584 13.2798C127.965 13.2798 127.26 14.6469 127.26 15.9558C127.26 17.465 128.202 18.6034 129.537 18.6034H129.553ZM129.504 19.5428C127.463 19.5428 125.86 18.177 125.86 15.9991C125.86 13.6927 127.542 12.3405 129.631 12.3405C131.815 12.3405 133.291 13.7779 133.291 15.8705C133.291 18.4328 131.327 19.5428 129.522 19.5428H129.504Z" fill="white"/>
<path d="M135.035 14.3627C135.035 13.6358 135.019 13.0673 134.972 12.4961H136.197L136.276 13.6223H136.307C136.685 12.9807 137.564 12.3405 138.82 12.3405C139.873 12.3405 141.506 12.9103 141.506 15.2736V19.3871H140.124V15.4144C140.124 14.3045 139.668 13.3665 138.365 13.3665C137.47 13.3665 136.763 13.9498 136.511 14.6469C136.448 14.8026 136.417 15.0313 136.417 15.2303V19.3871H135.035V14.3627Z" fill="white"/>
<path d="M148.748 10.8461V12.4961H150.726V13.4503H148.748V17.1659C148.748 18.02 149.015 18.5045 149.784 18.5045C150.161 18.5045 150.381 18.4761 150.585 18.4193L150.649 19.3722C150.381 19.4574 149.958 19.5427 149.423 19.5427C148.779 19.5427 148.26 19.3437 147.931 19.0175C147.553 18.6318 147.397 18.02 147.397 17.2092V13.4503H146.218V12.4961H147.397V11.2305L148.748 10.8461Z" fill="white"/>
<path d="M152.282 9.27991H153.663V13.5788H153.696C153.915 13.2228 154.26 12.8953 154.686 12.6963C155.093 12.4689 155.58 12.3403 156.099 12.3403C157.119 12.3403 158.753 12.9102 158.753 15.287V19.387H157.372V15.4291C157.372 14.3043 156.916 13.3799 155.612 13.3799C154.717 13.3799 154.026 13.9497 153.759 14.6319C153.679 14.8024 153.663 14.9879 153.663 15.2302V19.387H152.282V9.27991Z" fill="white"/>
<path d="M165.822 15.2587C165.837 14.475 165.461 13.223 163.922 13.223C162.508 13.223 161.911 14.3911 161.801 15.2587H165.822ZM161.784 16.1561C161.817 17.8494 162.996 18.5465 164.377 18.5465C165.367 18.5465 165.979 18.3909 166.482 18.2054L166.733 19.088C166.246 19.2869 165.397 19.5292 164.189 19.5292C161.864 19.5292 160.45 18.1202 160.45 16.056C160.45 13.9634 161.817 12.3269 164.03 12.3269C166.513 12.3269 167.157 14.3045 167.157 15.5714C167.157 15.8286 167.142 16.0275 167.11 16.1697L161.784 16.1561Z" fill="white"/>
</svg>
