<svg width="180" height="60" viewBox="0 0 180 60" fill="none" xmlns="http://www.w3.org/2000/svg">
<path d="M179.515 51.1433C179.515 55.5558 175.963 59.1345 171.581 59.1345H7.93526C3.55359 59.1345 0 55.5558 0 51.1433V7.99118C0 3.57864 3.55359 0 7.93526 0H171.581C175.963 0 179.515 3.57864 179.515 7.99118V51.1433Z" fill="#231F20"/>
<path d="M139.454 28.6622C138.272 28.6622 137.418 28.9922 136.89 29.6507C136.362 30.3093 136.092 31.3586 136.077 32.7972V33.1893C136.077 34.8268 136.349 35.9962 136.89 36.7017C137.432 37.4072 138.301 37.7593 139.496 37.7593C140.496 37.7593 141.279 37.352 141.845 36.5374C142.411 35.7228 142.693 34.599 142.693 33.1672C142.693 31.7162 142.411 30.602 141.845 29.8261C141.279 29.0501 140.481 28.6622 139.454 28.6622ZM139.707 39.2352C138.955 39.2352 138.267 39.0957 137.644 38.8168C137.022 38.5366 136.499 38.1058 136.077 37.5259H135.951C136.035 38.2052 136.077 38.85 136.077 39.4588V44.2511H134.326V27.3768H135.751L135.993 28.9701H136.077C136.528 28.3336 137.052 27.8725 137.65 27.5894C138.247 27.3064 138.934 27.1642 139.707 27.1642C141.242 27.1642 142.425 27.6916 143.258 28.7478C144.092 29.804 144.509 31.284 144.509 33.1893C144.509 35.1015 144.085 36.5871 143.238 37.6474C142.389 38.7064 141.213 39.2352 139.707 39.2352Z" fill="#F8F9F9"/>
<path d="M148.564 39.0226H146.813V22.4894H148.564V39.0226Z" fill="#F8F9F9"/>
<path d="M154.677 37.78C155.767 37.78 156.624 37.479 157.246 36.877C157.869 36.2751 158.181 35.4315 158.181 34.3477V33.2956L156.428 33.3702C155.036 33.4199 154.033 33.6367 153.416 34.0232C152.8 34.4098 152.493 35.0104 152.493 35.825C152.493 36.4628 152.684 36.9474 153.068 37.2802C153.452 37.6143 153.988 37.78 154.677 37.78ZM158.634 39.0226L158.286 37.3644H158.202C157.625 38.0961 157.049 38.589 156.476 38.8472C155.903 39.1068 155.187 39.2352 154.329 39.2352C153.183 39.2352 152.283 38.9383 151.634 38.3433C150.982 37.7482 150.657 36.9019 150.657 35.8043C150.657 33.4517 152.525 32.2201 156.259 32.1055L158.223 32.042V31.3186C158.223 30.4046 158.028 29.7308 157.637 29.2945C157.246 28.8582 156.621 28.6415 155.764 28.6415C154.801 28.6415 153.709 28.9397 152.493 29.5334L151.954 28.1845C152.525 27.8725 153.149 27.6281 153.829 27.4514C154.507 27.2746 155.187 27.1863 155.87 27.1863C157.248 27.1863 158.271 27.4942 158.935 28.1099C159.599 28.7257 159.932 29.7142 159.932 31.0756V39.0226H158.634Z" fill="#F8F9F9"/>
<path d="M160.949 27.3768H162.826L165.359 34.0191C165.915 35.5351 166.259 36.6285 166.394 37.3023H166.479C166.569 36.9406 166.761 36.322 167.053 35.4467C167.345 34.5714 168.301 31.8833 169.917 27.3768H171.797L166.826 40.6379C166.333 41.9482 165.759 42.8787 165.101 43.4282C164.443 43.9777 163.635 44.2511 162.68 44.2511C162.145 44.2511 161.617 44.1917 161.096 44.0702V42.6578C161.483 42.742 161.916 42.7848 162.394 42.7848C163.597 42.7848 164.455 42.1056 164.969 40.7456L165.612 39.0875L160.949 27.3768Z" fill="#F8F9F9"/>
<path d="M106.244 34.6459C106.8 34.0854 106.848 33.3067 106.848 32.8676C106.848 31.1142 105.808 28.3861 103.801 28.3861C103.171 28.3861 102.495 28.7022 102.107 29.191C101.697 29.7018 101.575 30.359 101.575 30.9927C101.575 32.6246 102.518 35.3293 104.599 35.3293C105.204 35.3293 105.855 35.0366 106.244 34.6459ZM105.542 39.2752C105.349 39.2504 105.227 39.2504 104.987 39.2504C104.769 39.2504 103.461 39.2987 102.447 39.6411C101.915 39.8344 100.366 40.4198 100.366 42.1497C100.366 43.8783 102.036 45.1223 104.624 45.1223C106.945 45.1223 108.18 43.9998 108.18 42.4907C108.18 41.2468 107.381 40.591 105.542 39.2752ZM107.26 28.4592C107.816 28.9217 108.977 29.8965 108.977 31.7479C108.977 33.5497 107.961 34.4043 106.945 35.2064C106.63 35.5226 106.268 35.865 106.268 36.4021C106.268 36.9364 106.63 37.2291 106.897 37.4486L107.769 38.1293C108.833 39.0308 109.799 39.8592 109.799 41.5409C109.799 43.83 107.598 46.1439 103.438 46.1439C99.9297 46.1439 98.2379 44.4637 98.2379 42.6606C98.2379 41.7825 98.6711 40.5413 100.1 39.688C101.598 38.763 103.633 38.6415 104.72 38.5669C104.38 38.1293 103.995 37.6654 103.995 36.9115C103.995 36.4987 104.115 36.2544 104.236 35.9617C103.969 35.9851 103.704 36.01 103.461 36.01C100.898 36.01 99.4471 34.0854 99.4471 32.1856C99.4471 31.0659 99.9557 29.8233 100.994 28.9217C102.373 27.7772 104.018 27.5825 105.326 27.5825H110.307L108.759 28.4592H107.26Z" fill="#F8F9F9"/>
<path d="M95.0503 36.9158C95.6303 36.1371 95.7756 35.1651 95.7756 34.2153C95.7756 32.0753 94.7611 27.9885 91.7668 27.9885C90.9703 27.9885 90.1738 28.3061 89.5938 28.8183C88.652 29.6674 88.482 30.7374 88.482 31.7853C88.482 34.1904 89.6651 38.1542 92.5881 38.1542C93.5299 38.1542 94.4965 37.6931 95.0503 36.9158ZM92.0314 38.8846C88.1927 38.8846 86.1403 35.8693 86.1403 33.1453C86.1403 29.9587 88.7233 27.2361 92.3961 27.2361C95.9442 27.2361 98.1666 30.0319 98.1666 32.9754C98.1666 35.8444 95.9689 38.8846 92.0314 38.8846Z" fill="#F8F9F9"/>
<path d="M81.9616 36.9158C82.5415 36.1371 82.6869 35.1651 82.6869 34.2153C82.6869 32.0753 81.671 27.9885 78.6767 27.9885C77.8802 27.9885 77.0823 28.3061 76.5037 28.8183C75.5618 29.6674 75.3932 30.7374 75.3932 31.7853C75.3932 34.1904 76.575 38.1542 79.4993 38.1542C80.4412 38.1542 81.4064 37.6931 81.9616 36.9158ZM78.9427 38.8846C75.1026 38.8846 73.0502 35.8693 73.0502 33.1453C73.0502 29.9587 75.6345 27.2361 79.3046 27.2361C82.8541 27.2361 85.0765 30.0319 85.0765 32.9754C85.0765 35.8444 82.8788 38.8846 78.9427 38.8846Z" fill="#F8F9F9"/>
<path d="M71.2048 38.5034L67.7321 39.3111C66.3241 39.532 65.0614 39.7253 63.7261 39.7253C57.0247 39.7253 54.4761 34.7619 54.4761 30.874C54.4761 26.1314 58.0927 21.7313 64.2855 21.7313C65.5975 21.7313 66.8588 21.926 67.9995 22.2435C69.8201 22.7571 70.6701 23.3922 71.2048 23.7595L69.1895 25.691L68.3395 25.8871L68.9468 24.9082C68.1215 24.1019 66.6148 22.6108 63.7508 22.6108C59.9148 22.6108 57.0247 25.546 57.0247 29.8247C57.0247 34.4195 60.3274 38.7478 65.6194 38.7478C67.1741 38.7478 67.9748 38.4302 68.7028 38.1362V34.1999L65.0381 34.396L66.9795 33.3439H72.1261L71.4955 33.9542C71.3255 34.1019 71.3008 34.1516 71.2528 34.3449C71.2268 34.5658 71.2048 35.2755 71.2048 35.5198V38.5034Z" fill="#F8F9F9"/>
<path d="M114.934 37.8007C114.133 37.7262 113.964 37.5812 113.964 36.6258V22.7862C113.97 22.7337 113.973 22.6799 113.978 22.6288C114.076 21.7742 114.318 21.6265 115.072 21.186H111.598L109.777 22.0669H111.634V22.0779L111.632 22.0683V37.1643C111.632 37.653 111.536 37.7262 110.977 38.4593H115.275L116.173 37.9236C115.76 37.8725 115.348 37.8491 114.934 37.8007Z" fill="#F8F9F9"/>
<path d="M122.548 30.787C123.006 30.6186 123.247 30.4722 123.247 30.1326C123.247 29.162 122.163 28.0437 120.859 28.0437C119.894 28.0437 118.087 28.7975 118.087 31.4193C118.087 31.8322 118.135 32.2698 118.16 32.7075L122.548 30.787ZM124.814 38.0244C124.55 38.1707 124.284 38.3419 124.021 38.462C123.223 38.8265 122.403 38.9232 121.679 38.9232C120.908 38.9232 119.702 38.8735 118.472 37.976C116.761 36.7611 116.014 34.6721 116.014 32.8524C116.014 29.0888 119.052 27.2443 121.535 27.2443C122.403 27.2443 123.297 27.4624 124.021 27.9235C125.224 28.7229 125.538 29.7681 125.706 30.3259L120.041 32.6343L118.184 32.7807C118.786 35.8636 120.859 37.6599 123.151 37.6599C124.38 37.6599 125.272 37.2222 126.092 36.8108L124.814 38.0244Z" fill="#F8F9F9"/>
<path d="M127.141 27.4099V29.0115H126.948V27.4099H126.421V27.2443H127.667V27.4099H127.141Z" fill="#F8F9F9"/>
<path d="M129.31 29.0115V27.3948H129.302L128.811 29.0115H128.66L128.167 27.3948H128.16V29.0115H127.984V27.2443H128.286L128.733 28.6732H128.738L129.18 27.2443H129.484V29.0115H129.31Z" fill="#F8F9F9"/>
<path d="M57.5567 14.824C57.1262 13.5193 56.911 12.8124 56.911 12.7061H56.8506C56.8506 12.8042 56.6285 13.5111 56.1843 14.824H57.5567ZM59.2978 16.9696H58.0914C58.0914 16.8025 57.9776 16.3303 57.7486 15.5503H56.0061C55.7703 16.3165 55.6524 16.7901 55.6524 16.9696H54.5172C54.5172 16.8715 54.8106 16.0611 55.3974 14.5396C55.9842 13.0195 56.2789 12.1815 56.2789 12.0269H57.7034C57.7034 12.1704 57.9694 12.9961 58.5013 14.5037C59.0319 16.0114 59.2978 16.8329 59.2978 16.9696Z" fill="#FAFBFB"/>
<path d="M64.1593 16.9696H63.2284C63.2284 16.866 62.8829 16.3179 62.192 15.3252C61.4681 14.2801 61.0554 13.5663 60.9553 13.1811H60.895C60.9581 13.7347 60.9882 14.2359 60.9882 14.6846C60.9882 15.3087 61.0061 16.0708 61.0417 16.9696H60.1136C60.1519 16.1854 60.1711 15.3238 60.1711 14.385C60.1711 13.46 60.1519 12.6744 60.1136 12.0269H61.2337C61.2337 12.1608 61.5449 12.6965 62.1645 13.6325C62.8267 14.6266 63.2065 15.3017 63.3038 15.6566H63.36C63.2997 15.0919 63.2696 14.5852 63.2696 14.1379C63.2696 13.4517 63.2517 12.7476 63.2175 12.0269H64.1593C64.1237 12.6537 64.1072 13.4406 64.1072 14.385C64.1072 15.3363 64.1237 16.1978 64.1593 16.9696Z" fill="#FAFBFB"/>
<path d="M68.5945 14.4912C68.5945 14.0052 68.4546 13.5952 68.1722 13.2624C67.8911 12.9297 67.462 12.7627 66.8835 12.7627C66.7752 12.7627 66.6271 12.7737 66.4379 12.7972C66.4639 13.3039 66.4763 13.8327 66.4763 14.3849C66.4763 14.9896 66.4886 15.5888 66.5133 16.1839C66.6778 16.217 66.841 16.2336 67.0041 16.2336C67.5443 16.2336 67.9446 16.0638 68.2051 15.7269C68.4642 15.3886 68.5945 14.9772 68.5945 14.4912ZM69.6241 14.3269C69.6241 15.0462 69.3951 15.6731 68.9386 16.2101C68.4807 16.7472 67.839 17.015 67.0151 17.015C66.6435 17.015 66.1308 16.9999 65.4768 16.9695C65.5097 16.2046 65.5262 15.3431 65.5262 14.3849C65.5262 13.4626 65.5097 12.6771 65.4768 12.0268H66.1363C66.2446 12.0268 66.405 12.0226 66.6189 12.0157C66.8327 12.0074 66.9726 12.0033 67.0384 12.0033C67.9446 12.0033 68.6027 12.2311 69.0112 12.6867C69.4198 13.1423 69.6241 13.6891 69.6241 14.3269Z" fill="#FAFBFB"/>
<path d="M73.249 13.4764C73.249 12.9739 72.9268 12.7212 72.2838 12.7212C72.048 12.7212 71.8396 12.7392 71.6586 12.7737C71.686 13.1672 71.6997 13.678 71.6997 14.3076C71.8382 14.3131 71.9547 14.3159 72.0507 14.3159C72.85 14.3159 73.249 14.037 73.249 13.4764ZM74.6624 16.9695H73.5465C73.2558 16.0734 73.0323 15.5212 72.8761 15.3099C72.7198 15.1001 72.4689 14.9952 72.122 14.9952C71.9753 14.9952 71.8368 14.9965 71.7039 14.9993C71.7039 15.6496 71.7148 16.3068 71.7368 16.9695H70.6893C70.7222 16.2046 70.7387 15.3431 70.7387 14.3849C70.7387 13.4626 70.7222 12.6771 70.6893 12.0268H71.3419C71.4173 12.0268 71.575 12.0226 71.8149 12.0157C72.0548 12.0074 72.2769 12.0033 72.4798 12.0033C73.6342 12.0033 74.21 12.4009 74.21 13.1962C74.21 13.8257 73.881 14.2648 73.2229 14.5133V14.5699C73.4765 14.6417 73.6986 14.8405 73.8906 15.1677C74.0811 15.4963 74.3389 16.0969 74.6624 16.9695Z" fill="#FAFBFB"/>
<path d="M79.0263 14.5175C79.0263 13.9887 78.8919 13.5593 78.6232 13.2294C78.3545 12.9008 78.0227 12.7365 77.6279 12.7365C77.2605 12.7365 76.9493 12.9022 76.6929 13.2335C76.4365 13.5662 76.309 13.9846 76.309 14.4913C76.309 15.0173 76.4434 15.4453 76.7135 15.7753C76.9835 16.1053 77.3153 16.2709 77.7074 16.2709C78.0735 16.2709 78.3861 16.1053 78.6424 15.7725C78.8988 15.4384 79.0263 15.0214 79.0263 14.5175ZM80.0669 14.4071C80.0669 15.1844 79.8311 15.8291 79.3581 16.34C78.8865 16.8508 78.3011 17.1062 77.606 17.1062C76.9424 17.1062 76.3858 16.8715 75.9388 16.4021C75.4919 15.9327 75.2684 15.3362 75.2684 14.6114C75.2684 13.8355 75.5042 13.1907 75.9772 12.6799C76.4489 12.1677 77.0329 11.9122 77.7293 11.9122C78.3929 11.9122 78.9482 12.1469 79.3965 12.615C79.8434 13.083 80.0669 13.6808 80.0669 14.4071Z" fill="#FAFBFB"/>
<path d="M82.1988 16.9696H81.1321C81.165 16.1854 81.1815 15.3238 81.1815 14.385C81.1815 13.46 81.165 12.6744 81.1321 12.0269H82.1988C82.1659 12.6647 82.1494 13.4503 82.1494 14.385C82.1494 15.339 82.1659 16.2006 82.1988 16.9696Z" fill="#FAFBFB"/>
<path d="M86.6353 14.4912C86.6353 14.0052 86.494 13.5952 86.213 13.2624C85.9306 12.9297 85.5015 12.7627 84.9229 12.7627C84.8146 12.7627 84.6665 12.7737 84.4773 12.7972C84.5034 13.3039 84.5157 13.8327 84.5157 14.3849C84.5157 14.9896 84.5281 15.5888 84.5527 16.1839C84.7172 16.217 84.8804 16.2336 85.0435 16.2336C85.5837 16.2336 85.984 16.0638 86.2445 15.7269C86.505 15.3886 86.6353 14.9772 86.6353 14.4912ZM87.6635 14.3269C87.6635 15.0462 87.4345 15.6731 86.978 16.2101C86.5201 16.7472 85.8785 17.015 85.0545 17.015C84.683 17.015 84.1702 16.9999 83.5163 16.9695C83.5492 16.2046 83.5656 15.3431 83.5656 14.3849C83.5656 13.4626 83.5492 12.6771 83.5163 12.0268H84.1771C84.284 12.0268 84.4458 12.0226 84.6597 12.0157C84.8722 12.0074 85.012 12.0033 85.0778 12.0033C85.984 12.0033 86.6421 12.2311 87.0507 12.6867C87.4592 13.1423 87.6635 13.6891 87.6635 14.3269Z" fill="#FAFBFB"/>
<path d="M93.1721 14.824C92.7416 13.5193 92.5264 12.8124 92.5264 12.7061H92.4661C92.4661 12.8042 92.244 13.5111 91.7998 14.824H93.1721ZM94.9133 16.9696H93.7068C93.7068 16.8025 93.593 16.3303 93.3641 15.5503H91.6215C91.3857 16.3165 91.2678 16.7901 91.2678 16.9696H90.1327C90.1327 16.8715 90.4261 16.0611 91.0128 14.5396C91.5996 13.0195 91.893 12.1815 91.893 12.0269H93.3188C93.3188 12.1704 93.5848 12.9961 94.1154 14.5037C94.6473 16.0114 94.9133 16.8329 94.9133 16.9696Z" fill="#FAFBFB"/>
<path d="M98.338 13.5303C98.338 12.9891 97.9815 12.7171 97.2672 12.7171C97.089 12.7171 96.9012 12.7364 96.7024 12.7737C96.7298 13.2528 96.7435 13.794 96.7435 14.4001C96.8066 14.4042 96.8792 14.407 96.9629 14.407C97.88 14.407 98.338 14.1143 98.338 13.5303ZM99.3114 13.3204C99.3114 13.9265 99.0879 14.3725 98.6423 14.661C98.1954 14.9496 97.6484 15.0946 96.9999 15.0946C96.882 15.0946 96.7983 15.0918 96.7476 15.0863C96.7476 15.5626 96.7613 16.1894 96.7887 16.9695H95.729C95.7619 16.2377 95.7783 15.3762 95.7783 14.3849C95.7783 13.4737 95.7619 12.6867 95.729 12.0268H96.3857C96.4789 12.0268 96.6571 12.0226 96.9204 12.0157C97.185 12.0074 97.4139 12.0033 97.6072 12.0033C98.0843 12.0033 98.4874 12.1124 98.8178 12.3305C99.1468 12.5487 99.3114 12.8786 99.3114 13.3204Z" fill="#FAFBFB"/>
<path d="M102.861 13.5303C102.861 12.9891 102.503 12.7171 101.79 12.7171C101.611 12.7171 101.423 12.7364 101.224 12.7737C101.251 13.2528 101.265 13.794 101.265 14.4001C101.328 14.4042 101.401 14.407 101.484 14.407C102.402 14.407 102.861 14.1143 102.861 13.5303ZM103.833 13.3204C103.833 13.9265 103.609 14.3725 103.164 14.661C102.718 14.9496 102.17 15.0946 101.521 15.0946C101.403 15.0946 101.32 15.0918 101.269 15.0863C101.269 15.5626 101.283 16.1894 101.31 16.9695H100.252C100.283 16.2377 100.3 15.3762 100.3 14.3849C100.3 13.4737 100.283 12.6867 100.252 12.0268H100.907C101 12.0268 101.179 12.0226 101.443 12.0157C101.706 12.0074 101.935 12.0033 102.129 12.0033C102.606 12.0033 103.01 12.1124 103.339 12.3305C103.668 12.5487 103.833 12.8786 103.833 13.3204Z" fill="#FAFBFB"/>
<path d="M110.186 14.5175C110.186 13.9887 110.052 13.5593 109.782 13.2294C109.513 12.9008 109.181 12.7365 108.786 12.7365C108.42 12.7365 108.108 12.9022 107.851 13.2335C107.595 13.5662 107.467 13.9846 107.467 14.4913C107.467 15.0173 107.602 15.4453 107.873 15.7753C108.143 16.1053 108.474 16.2709 108.866 16.2709C109.233 16.2709 109.544 16.1053 109.801 15.7725C110.057 15.4384 110.186 15.0214 110.186 14.5175ZM111.227 14.4071C111.227 15.1844 110.989 15.8291 110.518 16.34C110.045 16.8508 109.461 17.1062 108.764 17.1062C108.101 17.1062 107.546 16.8715 107.097 16.4021C106.65 15.9327 106.427 15.3362 106.427 14.6114C106.427 13.8355 106.663 13.1907 107.136 12.6799C107.609 12.1677 108.193 11.9122 108.889 11.9122C109.553 11.9122 110.108 12.1469 110.555 12.615C111.002 13.083 111.227 13.6808 111.227 14.4071Z" fill="#FAFBFB"/>
<path d="M116.336 16.9696H115.405C115.405 16.866 115.06 16.3179 114.369 15.3252C113.645 14.2801 113.232 13.5663 113.132 13.1811H113.072C113.134 13.7347 113.165 14.2359 113.165 14.6846C113.165 15.3087 113.183 16.0708 113.219 16.9696H112.29C112.329 16.1854 112.348 15.3238 112.348 14.385C112.348 13.46 112.329 12.6744 112.29 12.0269H113.411C113.411 12.1608 113.722 12.6965 114.341 13.6325C115.004 14.6266 115.382 15.3017 115.481 15.6566H115.537C115.477 15.0919 115.446 14.5852 115.446 14.1379C115.446 13.4517 115.429 12.7476 115.394 12.0269H116.336C116.301 12.6537 116.284 13.4406 116.284 14.385C116.284 15.3363 116.301 16.1978 116.336 16.9696Z" fill="#FAFBFB"/>
<path d="M39.2085 31.3873L20.2225 45.6712C19.6472 45.4569 19.2157 44.8141 19.2157 43.8857V18.9603C19.2157 17.9604 19.6472 17.3177 20.2944 17.1034L39.2085 31.3873Z" fill="url(#paint0_linear_396_18637)"/>
<path d="M39.2086 36.101L21.8766 45.4569C21.2294 45.814 20.6541 45.814 20.2226 45.6712L35.397 30.4589L39.2086 36.101Z" fill="url(#paint1_linear_396_18637)"/>
<path d="M20.2945 17.1034C20.726 16.9606 21.3013 17.032 21.8766 17.3891L39.1366 26.745L35.325 32.2443L20.2945 17.1034Z" fill="url(#paint2_linear_396_18637)"/>
<path d="M39.1367 26.745L45.2496 30.0303C46.6879 30.8159 46.6879 32.03 45.2496 32.8156L39.2086 36.1009L34.4621 31.3873L39.1367 26.745Z" fill="url(#paint3_linear_396_18637)"/>
<defs>
<linearGradient id="paint0_linear_396_18637" x1="-15.6639" y1="14.0324" x2="-15.6639" y2="33.887" gradientUnits="userSpaceOnUse">
<stop stop-color="#3588B7"/>
<stop offset="1" stop-color="#66FFD4"/>
</linearGradient>
<linearGradient id="paint1_linear_396_18637" x1="20.2226" y1="30.4589" x2="39.2086" y2="30.4589" gradientUnits="userSpaceOnUse">
<stop stop-color="#9635C2"/>
<stop offset="1" stop-color="#E3424F"/>
</linearGradient>
<linearGradient id="paint2_linear_396_18637" x1="20.2945" y1="17.0344" x2="39.1366" y2="17.0344" gradientUnits="userSpaceOnUse">
<stop stop-color="#60CAB6"/>
<stop offset="1" stop-color="#D6FFA2"/>
</linearGradient>
<linearGradient id="paint3_linear_396_18637" x1="5.05118" y1="40.2656" x2="13.3837" y2="48.6561" gradientUnits="userSpaceOnUse">
<stop stop-color="#FF9877"/>
<stop offset="1" stop-color="#FFC466"/>
</linearGradient>
</defs>
</svg>
