<svg width="84" height="84" viewBox="0 0 84 84" fill="none" xmlns="http://www.w3.org/2000/svg">
<rect width="84" height="84" rx="42" fill="#FFEEDD"/>
<path d="M42 34.6665C41.5137 34.6665 41.0474 34.8597 40.7036 35.2035C40.3598 35.5473 40.1666 36.0136 40.1666 36.4998V43.8332C40.1666 44.3194 40.3598 44.7857 40.7036 45.1295C41.0474 45.4733 41.5137 45.6665 42 45.6665C42.4862 45.6665 42.9525 45.4733 43.2963 45.1295C43.6401 44.7857 43.8333 44.3194 43.8333 43.8332V36.4998C43.8333 36.0136 43.6401 35.5473 43.2963 35.2035C42.9525 34.8597 42.4862 34.6665 42 34.6665ZM34.6666 40.1665C34.1804 40.1665 33.7141 40.3597 33.3703 40.7035C33.0264 41.0473 32.8333 41.5136 32.8333 41.9998V43.8332C32.8333 44.3194 33.0264 44.7857 33.3703 45.1295C33.7141 45.4733 34.1804 45.6665 34.6666 45.6665C35.1529 45.6665 35.6192 45.4733 35.963 45.1295C36.3068 44.7857 36.5 44.3194 36.5 43.8332V41.9998C36.5 41.5136 36.3068 41.0473 35.963 40.7035C35.6192 40.3597 35.1529 40.1665 34.6666 40.1665ZM54.8333 23.6665H29.1666C27.7079 23.6665 26.309 24.246 25.2775 25.2774C24.2461 26.3089 23.6666 27.7078 23.6666 29.1665V47.4998C23.6666 48.9585 24.2461 50.3575 25.2775 51.3889C26.309 52.4204 27.7079 52.9998 29.1666 52.9998H50.415L57.1983 59.8015C57.3696 59.9714 57.5728 60.1059 57.7961 60.1971C58.0195 60.2883 58.2587 60.3346 58.5 60.3332C58.7404 60.3394 58.979 60.2891 59.1966 60.1865C59.5314 60.049 59.818 59.8154 60.0203 59.5152C60.2226 59.2151 60.3315 58.8618 60.3333 58.4998V29.1665C60.3333 27.7078 59.7538 26.3089 58.7224 25.2774C57.6909 24.246 56.292 23.6665 54.8333 23.6665ZM56.6666 54.0815L52.4683 49.8648C52.297 49.6949 52.0938 49.5605 51.8705 49.4693C51.6471 49.378 51.4079 49.3318 51.1666 49.3332H29.1666C28.6804 49.3332 28.2141 49.14 27.8703 48.7962C27.5264 48.4524 27.3333 47.9861 27.3333 47.4998V29.1665C27.3333 28.6803 27.5264 28.214 27.8703 27.8701C28.2141 27.5263 28.6804 27.3332 29.1666 27.3332H54.8333C55.3195 27.3332 55.7858 27.5263 56.1297 27.8701C56.4735 28.214 56.6666 28.6803 56.6666 29.1665V54.0815ZM49.3333 30.9998C48.8471 30.9998 48.3807 31.193 48.0369 31.5368C47.6931 31.8806 47.5 32.3469 47.5 32.8332V43.8332C47.5 44.3194 47.6931 44.7857 48.0369 45.1295C48.3807 45.4733 48.8471 45.6665 49.3333 45.6665C49.8195 45.6665 50.2858 45.4733 50.6297 45.1295C50.9735 44.7857 51.1666 44.3194 51.1666 43.8332V32.8332C51.1666 32.3469 50.9735 31.8806 50.6297 31.5368C50.2858 31.193 49.8195 30.9998 49.3333 30.9998Z" fill="#FF8A1B"/>
</svg>
