<svg width="84" height="84" viewBox="0 0 84 84" fill="none" xmlns="http://www.w3.org/2000/svg">
<rect width="84" height="84" rx="42" fill="#D4D9ED"/>
<path d="M49.3333 51.1664V54.8331H23.6666V51.1664C23.6666 51.1664 23.6666 43.8331 36.5 43.8331C49.3333 43.8331 49.3333 51.1664 49.3333 51.1664ZM42.9166 33.7498C42.9166 32.4807 42.5403 31.2401 41.8352 30.1849C41.1301 29.1296 40.128 28.3072 38.9555 27.8215C37.783 27.3359 36.4928 27.2088 35.2481 27.4564C34.0034 27.704 32.8601 28.3151 31.9627 29.2125C31.0653 30.1099 30.4542 31.2532 30.2066 32.4979C29.959 33.7427 30.0861 35.0328 30.5717 36.2053C31.0574 37.3778 31.8798 38.38 32.9351 39.085C33.9903 39.7901 35.2309 40.1664 36.5 40.1664C38.2018 40.1664 39.8339 39.4904 41.0372 38.287C42.2406 37.0837 42.9166 35.4516 42.9166 33.7498ZM49.2233 43.8331C50.3503 44.7053 51.2725 45.8139 51.925 47.0809C52.5775 48.3478 52.9444 49.7424 53 51.1664V54.8331H60.3333V51.1664C60.3333 51.1664 60.3333 44.5114 49.2233 43.8331ZM47.5 27.3331C46.2381 27.3261 45.0039 27.7034 43.9616 28.4148C45.0753 29.9708 45.6741 31.8363 45.6741 33.7498C45.6741 35.6632 45.0753 37.5288 43.9616 39.0848C45.0039 39.7962 46.2381 40.1735 47.5 40.1664C49.2018 40.1664 50.8339 39.4904 52.0372 38.287C53.2406 37.0837 53.9166 35.4516 53.9166 33.7498C53.9166 32.048 53.2406 30.4159 52.0372 29.2125C50.8339 28.0091 49.2018 27.3331 47.5 27.3331Z" fill="#2943A3"/>
</svg>
