<svg width="84" height="84" viewBox="0 0 84 84" fill="none" xmlns="http://www.w3.org/2000/svg">
<rect width="84" height="84" rx="42" fill="#FFE8E9"/>
<path d="M24.4 28.7999C24.4 27.633 24.8636 26.5138 25.6888 25.6886C26.5139 24.8635 27.6331 24.3999 28.8 24.3999H42C43.167 24.3999 44.2861 24.8635 45.1113 25.6886C45.9365 26.5138 46.4 27.633 46.4 28.7999V30.9999H55.2C56.367 30.9999 57.4861 31.4635 58.3113 32.2886C59.1365 33.1138 59.6 34.233 59.6 35.3999V57.3999C59.6 57.9834 59.3682 58.543 58.9557 58.9555C58.5431 59.3681 57.9835 59.5999 57.4 59.5999H26.6C26.0165 59.5999 25.457 59.3681 25.0444 58.9555C24.6318 58.543 24.4 57.9834 24.4 57.3999V28.7999ZM46.4 57.3999H50.8V52.9999H46.4V57.3999ZM53 57.3999H57.4V35.3999C57.4 34.8164 57.1682 34.2568 56.7557 33.8443C56.3431 33.4317 55.7835 33.1999 55.2 33.1999H42C41.4165 33.1999 40.857 33.4317 40.4444 33.8443C40.0318 34.2568 39.8 34.8164 39.8 35.3999V57.3999H44.2V52.9999C44.2 52.4164 44.4318 51.8569 44.8444 51.4443C45.257 51.0317 45.8166 50.7999 46.4 50.7999H50.8C51.3835 50.7999 51.9431 51.0317 52.3557 51.4443C52.7682 51.8569 53 52.4164 53 52.9999V57.3999ZM44.2 28.7999C44.2 28.2164 43.9682 27.6568 43.5557 27.2443C43.1431 26.8317 42.5835 26.5999 42 26.5999H28.8C28.2165 26.5999 27.657 26.8317 27.2444 27.2443C26.8318 27.6568 26.6 28.2164 26.6 28.7999V57.3999H37.6V35.3999C37.6 34.233 38.0636 33.1138 38.8888 32.2886C39.7139 31.4635 40.8331 30.9999 42 30.9999H44.2V28.7999ZM46.4 39.2499C46.4 39.6875 46.2262 40.1072 45.9168 40.4166C45.6073 40.7261 45.1876 40.8999 44.75 40.8999C44.3124 40.8999 43.8927 40.7261 43.5833 40.4166C43.2739 40.1072 43.1 39.6875 43.1 39.2499C43.1 38.8123 43.2739 38.3926 43.5833 38.0832C43.8927 37.7737 44.3124 37.5999 44.75 37.5999C45.1876 37.5999 45.6073 37.7737 45.9168 38.0832C46.2262 38.3926 46.4 38.8123 46.4 39.2499ZM31.55 40.8999C31.9876 40.8999 32.4073 40.7261 32.7168 40.4166C33.0262 40.1072 33.2 39.6875 33.2 39.2499C33.2 38.8123 33.0262 38.3926 32.7168 38.0832C32.4073 37.7737 31.9876 37.5999 31.55 37.5999C31.1124 37.5999 30.6927 37.7737 30.3833 38.0832C30.0739 38.3926 29.9 38.8123 29.9 39.2499C29.9 39.6875 30.0739 40.1072 30.3833 40.4166C30.6927 40.7261 31.1124 40.8999 31.55 40.8999ZM33.2 32.6499C33.2 33.0875 33.0262 33.5072 32.7168 33.8166C32.4073 34.1261 31.9876 34.2999 31.55 34.2999C31.1124 34.2999 30.6927 34.1261 30.3833 33.8166C30.0739 33.5072 29.9 33.0875 29.9 32.6499C29.9 32.2123 30.0739 31.7926 30.3833 31.4832C30.6927 31.1737 31.1124 30.9999 31.55 30.9999C31.9876 30.9999 32.4073 31.1737 32.7168 31.4832C33.0262 31.7926 33.2 32.2123 33.2 32.6499ZM44.75 47.4999C44.9667 47.4999 45.1813 47.4572 45.3815 47.3743C45.5816 47.2914 45.7635 47.1698 45.9168 47.0166C46.07 46.8634 46.1915 46.6815 46.2744 46.4813C46.3573 46.2811 46.4 46.0666 46.4 45.8499C46.4 45.6332 46.3573 45.4187 46.2744 45.2185C46.1915 45.0183 46.07 44.8364 45.9168 44.6832C45.7635 44.53 45.5816 44.4084 45.3815 44.3255C45.1813 44.2426 44.9667 44.1999 44.75 44.1999C44.3124 44.1999 43.8927 44.3737 43.5833 44.6832C43.2739 44.9926 43.1 45.4123 43.1 45.8499C43.1 46.2875 43.2739 46.7072 43.5833 47.0166C43.8927 47.3261 44.3124 47.4999 44.75 47.4999ZM33.2 52.4499C33.2 52.8875 33.0262 53.3072 32.7168 53.6166C32.4073 53.9261 31.9876 54.0999 31.55 54.0999C31.1124 54.0999 30.6927 53.9261 30.3833 53.6166C30.0739 53.3072 29.9 52.8875 29.9 52.4499C29.9 52.0123 30.0739 51.5926 30.3833 51.2832C30.6927 50.9737 31.1124 50.7999 31.55 50.7999C31.9876 50.7999 32.4073 50.9737 32.7168 51.2832C33.0262 51.5926 33.2 52.0123 33.2 52.4499ZM31.55 47.4999C31.7667 47.4999 31.9813 47.4572 32.1815 47.3743C32.3816 47.2914 32.5635 47.1698 32.7168 47.0166C32.87 46.8634 32.9915 46.6815 33.0744 46.4813C33.1573 46.2811 33.2 46.0666 33.2 45.8499C33.2 45.6332 33.1573 45.4187 33.0744 45.2185C32.9915 45.0183 32.87 44.8364 32.7168 44.6832C32.5635 44.53 32.3816 44.4084 32.1815 44.3255C31.9813 44.2426 31.7667 44.1999 31.55 44.1999C31.1124 44.1999 30.6927 44.3737 30.3833 44.6832C30.0739 44.9926 29.9 45.4123 29.9 45.8499C29.9 46.2875 30.0739 46.7072 30.3833 47.0166C30.6927 47.3261 31.1124 47.4999 31.55 47.4999ZM54.1 39.2499C54.1 39.6875 53.9262 40.1072 53.6168 40.4166C53.3073 40.7261 52.8876 40.8999 52.45 40.8999C52.0124 40.8999 51.5927 40.7261 51.2833 40.4166C50.9739 40.1072 50.8 39.6875 50.8 39.2499C50.8 38.8123 50.9739 38.3926 51.2833 38.0832C51.5927 37.7737 52.0124 37.5999 52.45 37.5999C52.8876 37.5999 53.3073 37.7737 53.6168 38.0832C53.9262 38.3926 54.1 38.8123 54.1 39.2499ZM52.45 47.4999C52.6667 47.4999 52.8813 47.4572 53.0815 47.3743C53.2816 47.2914 53.4635 47.1698 53.6168 47.0166C53.77 46.8634 53.8915 46.6815 53.9744 46.4813C54.0573 46.2811 54.1 46.0666 54.1 45.8499C54.1 45.6332 54.0573 45.4187 53.9744 45.2185C53.8915 45.0183 53.77 44.8364 53.6168 44.6832C53.4635 44.53 53.2816 44.4084 53.0815 44.3255C52.8813 44.2426 52.6667 44.1999 52.45 44.1999C52.0124 44.1999 51.5927 44.3737 51.2833 44.6832C50.9739 44.9926 50.8 45.4123 50.8 45.8499C50.8 46.2875 50.9739 46.7072 51.2833 47.0166C51.5927 47.3261 52.0124 47.4999 52.45 47.4999Z" fill="#FA6668"/>
</svg>
