<svg width="33" height="59" viewBox="0 0 33 59" fill="none" xmlns="http://www.w3.org/2000/svg">
    <path
        d="M30.8095 17.7142C30.7513 16.3737 29.9171 15.0828 28.4621 14.3546L28.1905 14.2222C29.0053 14.5697 29.7037 15.0993 30.1887 15.811C30.5767 16.4233 30.7901 17.0688 30.8095 17.7142Z"
        stroke="white" stroke-width="3" stroke-miterlimit="10" />
    <path
        d="M8.89504 2.60669L28.1905 13.6246C26.8663 12.971 25.2394 12.971 23.8585 13.774L16.9726 17.7143L4.29819 10.4686C2.10381 9.21743 1.34713 6.43494 2.61457 4.26871C3.90093 2.10248 6.70066 1.3555 8.89504 2.60669Z"
        stroke="white" stroke-width="3" stroke-miterlimit="10" />
    <path
        d="M30.8095 17.7142C30.7901 18.521 30.5767 19.3279 30.1693 20.0933C29.6843 20.9829 28.9859 21.6656 28.1905 22.0793L28.4621 21.9138C29.9171 21.0036 30.7513 19.3899 30.8095 17.7142Z"
        stroke="white" stroke-width="3" stroke-miterlimit="10" />
    <path
        d="M30.8095 40.9067C30.8095 42.4955 29.976 44.0461 28.5172 44.9075L27.9867 45.2138L8.9093 56.374C6.71169 57.6565 3.88892 56.91 2.61961 54.6703C1.35031 52.4497 2.08916 49.5974 4.3057 48.3149L14.8769 42.1318C15.8052 41.5958 15.8052 40.2367 14.8769 39.6815L4.49515 33.6133L4.3057 33.4984C2.88484 32.6562 2.05127 31.163 2.01338 29.6125C2.01338 29.5168 2.01338 29.421 2.01338 29.3253C2.07021 27.7748 2.88484 26.2816 4.3057 25.4394L4.49515 25.3245L16.9987 18.012L23.8947 13.9729C25.2776 13.1689 26.9069 13.1689 28.233 13.8198L28.4983 13.9729C29.9191 14.8152 30.7527 16.3083 30.7906 17.8589C30.7906 17.9546 30.7906 18.0503 30.7906 18.146C30.7337 19.6966 29.9191 21.1897 28.4983 22.032L28.233 22.1851L17.8891 28.2342C16.9609 28.7702 16.9609 30.1293 17.8891 30.6845L27.9489 36.5804L28.4983 36.8867C29.9759 37.7673 30.7906 39.3178 30.8095 40.9067Z"
        stroke="white" stroke-width="3" stroke-miterlimit="10" />
</svg>