<svg width="54" height="54" viewBox="0 0 54 54" fill="none" xmlns="http://www.w3.org/2000/svg">
<g filter="url(#filter0_d_432_18744)">
<circle cx="27" cy="23" r="23" fill="#2943A3"/>
</g>
<g filter="url(#filter1_d_432_18744)">
<circle cx="27" cy="23" r="21.5" stroke="#2943A3" stroke-width="3"/>
</g>
<path d="M37 15.0112C36.1294 15.7641 35.1656 16.3399 34.1455 16.7165C33.5979 15.9447 32.8703 15.3976 32.0609 15.1493C31.2516 14.901 30.3995 14.9635 29.6201 15.3283C28.8406 15.693 28.1713 16.3425 27.7027 17.1888C27.2341 18.0351 26.9888 19.0375 27 20.0603V21.1749C25.4024 21.2257 23.8193 20.7913 22.3918 19.9104C20.9643 19.0294 19.7367 17.7293 18.8182 16.1258C18.8182 16.1258 15.1818 26.1572 23.3636 30.6156C21.4914 32.1738 19.2611 32.9551 17 32.8448C25.1818 38.4178 35.1818 32.8448 35.1818 20.0269C35.181 19.7164 35.1566 19.4067 35.1091 19.1018C36.0369 17.9799 36.6917 16.5635 37 15.0112Z" fill="white"/>
<defs>
<filter id="filter0_d_432_18744" x="0" y="0" width="54" height="54" filterUnits="userSpaceOnUse" color-interpolation-filters="sRGB">
<feFlood flood-opacity="0" result="BackgroundImageFix"/>
<feColorMatrix in="SourceAlpha" type="matrix" values="0 0 0 0 0 0 0 0 0 0 0 0 0 0 0 0 0 0 127 0" result="hardAlpha"/>
<feOffset dy="4"/>
<feGaussianBlur stdDeviation="2"/>
<feComposite in2="hardAlpha" operator="out"/>
<feColorMatrix type="matrix" values="0 0 0 0 0 0 0 0 0 0 0 0 0 0 0 0 0 0 0.5 0"/>
<feBlend mode="normal" in2="BackgroundImageFix" result="effect1_dropShadow_432_18744"/>
<feBlend mode="normal" in="SourceGraphic" in2="effect1_dropShadow_432_18744" result="shape"/>
</filter>
<filter id="filter1_d_432_18744" x="0" y="0" width="54" height="54" filterUnits="userSpaceOnUse" color-interpolation-filters="sRGB">
<feFlood flood-opacity="0" result="BackgroundImageFix"/>
<feColorMatrix in="SourceAlpha" type="matrix" values="0 0 0 0 0 0 0 0 0 0 0 0 0 0 0 0 0 0 127 0" result="hardAlpha"/>
<feOffset dy="4"/>
<feGaussianBlur stdDeviation="2"/>
<feColorMatrix type="matrix" values="0 0 0 0 0 0 0 0 0 0 0 0 0 0 0 0 0 0 0.5 0"/>
<feBlend mode="normal" in2="BackgroundImageFix" result="effect1_dropShadow_432_18744"/>
<feBlend mode="normal" in="SourceGraphic" in2="effect1_dropShadow_432_18744" result="shape"/>
</filter>
</defs>
</svg>
